<svg xmlns="http://www.w3.org/2000/svg" aria-hidden="true" style="position:absolute;width:0;height:0;overflow:hidden"><defs><symbol id="icon-logo" viewBox="0 0 23 32"><path d="M10.44 6.898c-.426.115-.941.389-1.133.602a1.079 1.079 0 0 0-.16 1.244c.29.533.997.595 1.941.171.285-.128.362-.146.691-.16.573-.025 1.063.129 1.792.563.267.159.505.163.798.014.297-.151.405-.166.779-.109.459.07.931.068 1.07-.004.313-.162.335-.709.041-1.003-.241-.241-.571-.281-1.049-.129-.352.112-.375.102-.621-.25-.284-.407-.659-.628-1.209-.714-.323-.05-.527-.022-.886.121-.411.163-.489.152-.778-.109-.141-.128-.304-.238-.392-.264-.212-.064-.589-.052-.883.027zm.889.099c.076.032.239.151.363.264.199.183.243.206.385.206.09 0 .294-.052.462-.118.377-.146.639-.172.972-.094.435.102.757.304.952.596.206.31.321.407.477.407.078 0 .228-.034.333-.075.242-.095.536-.096.744-.001.347.157.458.636.207.888l-.103.103-.434-.022a28.452 28.452 0 0 1-.741-.047c-.294-.023-.319-.019-.583.103-.398.183-.502.173-.934-.09-.601-.366-1.064-.497-1.663-.473-.318.013-.398.032-.717.169-.434.187-.581.228-.924.26-.336.031-.546-.025-.735-.195-.325-.294-.35-.86-.056-1.247.178-.234.668-.502 1.157-.633.267-.072.665-.072.837-.001zm-3.108.534c-.464.081-.87.283-1.207.601-.207.195-.3.32-.424.572-.138.278-.161.361-.173.612-.01.229.001.312.053.391.138.211.427.277.856.194.337-.065.556-.154.809-.331.099-.069.35-.21.557-.314.45-.225.472-.273.286-.622-.136-.256-.147-.437-.04-.673.112-.247.1-.338-.056-.403-.123-.051-.448-.065-.661-.028zm.594.11c.106.028.109.121.009.316-.11.215-.098.438.038.692.173.324.166.339-.236.527-.192.09-.456.233-.587.319-.416.27-.972.403-1.27.304a.328.328 0 0 1-.223-.197c-.063-.13-.067-.173-.029-.377.095-.513.522-1.087.987-1.326.426-.219 1.018-.335 1.31-.257zm3.023 1.694c-.813.127-1.257.297-1.584.609-.3.285-.425.549-.423.893.003.584.309.902.754.782.147-.04.209-.078.543-.334.343-.263 1.015-.376 1.516-.255.615.149 1.374.642 1.64 1.065.062.099.192.421.29.715.19.577.267.708.46.789.299.125.504.021.583-.297.058-.235.056-1.26-.003-1.575-.095-.5-.42-.895-1.264-1.533-.905-.685-1.18-.823-1.752-.883-.382-.04-.351-.041-.758.022zm4.608.077c-.414.111-.897.444-.986.68-.05.133-.045.329.011.4a1.5 1.5 0 0 0 .255.192c.468.296.56.522.475 1.16s-.007.865.431 1.245c.398.347.392.378-.161.736-.472.306-.775.614-.951.966-.145.29-.169.492-.078.667.109.211.349.298 1.163.421.71.108 1.135.092 1.43-.053.397-.194.669-.562.7-.948.022-.273-.085-.416-.439-.589-.45-.22-.45-.268-.002-.739.376-.395.524-.651.524-.91 0-.2-.055-.333-.278-.661a2.262 2.262 0 0 1-.254-.522c-.083-.274-.083-.29-.01-1.098.029-.315-.014-.427-.237-.633-.361-.333-1.032-.466-1.592-.316zm-3.695.032c.469.084.673.197 1.561.866.624.471.934.785 1.079 1.094.103.221.121.311.157.796.045.607.007 1.079-.101 1.243-.114.174-.453.093-.572-.137a5.578 5.578 0 0 1-.193-.537c-.168-.529-.274-.739-.495-.975s-.758-.592-1.123-.744c-.739-.308-1.581-.219-2.102.221-.321.271-.671.34-.826.163-.317-.362-.264-.915.129-1.345.231-.252.518-.4 1.026-.529.675-.17 1.008-.197 1.462-.116zm4.828.13c.267.104.511.318.575.507.041.12.04.2-.005.471-.101.611-.018 1.019.308 1.514.228.346.247.391.247.571 0 .235-.127.46-.429.759-.338.334-.438.47-.438.593 0 .156.095.25.394.393.305.145.398.258.397.483-.001.342-.382.792-.776.916-.27.085-.879.063-1.519-.055-.673-.124-.835-.223-.835-.51 0-.349.455-.935.981-1.264.149-.093.322-.211.384-.261.244-.198.21-.406-.106-.644-.436-.329-.541-.613-.451-1.215.099-.656-.01-.905-.552-1.27-.219-.147-.257-.21-.214-.358.072-.25.493-.562.927-.686.271-.078.844-.05 1.112.054zm-9.136.044a1.546 1.546 0 0 1-.167.119l-.131.085c-.084.057-.38.151-.819.259-.803.198-1.127.347-1.446.665a1.948 1.948 0 0 0-.321.435c-.1.205-.111.263-.111.605 0 .363.006.391.144.67.309.625.92 1.086 1.275.962.093-.032.149-.117.354-.534.288-.588.606-1.017.846-1.144.135-.071.225-.088.478-.088.396 0 .43-.029.43-.365 0-.221.014-.265.127-.422.229-.315.302-.494.304-.747.002-.272-.069-.396-.303-.53a.59.59 0 0 0-.66.03zm.649.084c.315.212.297.55-.058 1.067-.163.238-.172.264-.172.511v.26l-.311.001c-.34.001-.52.06-.736.242-.171.145-.58.772-.738 1.133-.166.38-.256.456-.469.398a1.208 1.208 0 0 1-.34-.188c-.545-.431-.821-1.099-.687-1.659.101-.42.515-.857.999-1.053.125-.05.496-.158.825-.238.655-.16.746-.198 1.019-.413.155-.123.212-.146.362-.146a.52.52 0 0 1 .306.086zm2.764 1.987c-.164.082-.418.297-.958.812-.99.944-1.034.993-1.128 1.273-.401 1.183.355 2.178 1.661 2.182a2.21 2.21 0 0 0 .547-.062c.979-.279 1.519-1.165 1.18-1.938-.112-.256-.246-.409-.448-.511-.542-.275-1.036-.142-1.172.315-.076.253-.022.349.239.432.225.071.313.164.273.287-.031.099-.285.191-.526.191-.446 0-.603-.394-.321-.806.193-.281.861-.703 1.11-.702.356.001.832.222 1.142.529.407.403.55.83.4 1.192-.087.209-.387.603-.653.857-.364.347-1.295.731-1.987.819-.4.051-.633.004-.921-.187-.479-.317-.952-1.11-1.006-1.685-.02-.213-.01-.261.102-.494.103-.215.127-.314.142-.597.022-.417.047-.471.216-.471.278 0 .396-.131.396-.437 0-.466-.482-.824-1.175-.873-.416-.029-.649.086-1.156.573-.463.444-.611.697-.611 1.046 0 .266.067.41.24.517.192.119.229.241.174.581-.1.619-.015.899.46 1.524.296.389.492.576.858.813.544.354 1.068.514 1.776.543.411.017.561.004 1.177-.099.388-.065.834-.151.99-.191.733-.188 1.417-.696 1.602-1.193.111-.298.163-.903.143-1.674-.016-.587-.028-.69-.115-.933-.216-.607-.574-1.085-1.053-1.404a2.16 2.16 0 0 0-1.101-.34c-.229 0-.312.019-.498.112zm1.022.081c.87.27 1.489 1.075 1.639 2.134.05.355-.013 1.579-.096 1.859-.124.419-.465.767-1.015 1.036-.586.286-1.642.49-2.545.491-.636.001-.944-.057-1.414-.265-.517-.228-1.085-.721-1.449-1.257-.308-.453-.362-.675-.283-1.146.073-.431.035-.592-.173-.736-.246-.171-.293-.388-.168-.769.055-.166.131-.264.449-.581.471-.468.656-.583.98-.609.418-.034.974.19 1.155.465.093.141.099.452.011.55-.041.045-.116.069-.217.07a.527.527 0 0 0-.199.029c-.08.051-.125.234-.125.51a.95.95 0 0 1-.118.516c-.264.548-.103 1.233.456 1.937.219.276.424.455.655.577.309.162.906.122 1.59-.104.883-.293 1.246-.533 1.666-1.103.479-.65.477-1.005-.008-1.621-.448-.569-1.289-.844-1.771-.58-.296.162-.676.461-.784.618-.244.354-.202.769.093.92.354.181.974-.002.974-.287 0-.142-.178-.305-.368-.337-.175-.03-.219-.1-.179-.284.056-.253.383-.445.664-.39.375.073.662.309.791.65.239.633-.228 1.419-.997 1.678-.348.118-.7.144-1.023.078-.568-.117-.961-.398-1.179-.843-.094-.191-.104-.25-.101-.589.005-.602.059-.704.707-1.332.85-.825 1.166-1.119 1.301-1.212.288-.198.606-.219 1.081-.072zm-8.142.533c-.03.047-.073.185-.095.308-.036.201-.061.243-.248.416-.181.168-.208.212-.208.335 0 .174.068.309.232.464.168.158.263.203.43.203.191 0 .353-.178.483-.53.192-.518.168-.917-.071-1.155-.105-.105-.152-.125-.297-.125-.138 0-.184.017-.227.085zm.519.189c.115.154.125.459.026.789-.198.66-.426.792-.794.459-.15-.135-.228-.311-.195-.44.01-.038.093-.131.185-.207.193-.16.275-.295.275-.455s.06-.297.139-.315c.105-.024.28.058.364.169zm.467 1.273a1.419 1.419 0 0 0-.839.582c-.284.444-.317.912-.096 1.363.172.351.567.744.926.92.61.299.717.427.794.954.028.191.067.402.087.468.077.255.295.605.513.825.379.382.832.537 1.441.494.361-.026.687-.152.922-.358.201-.177.378-.535.4-.813.042-.531-.169-.809-.804-1.055-.599-.233-1.262-.655-1.576-1.003-.215-.239-.289-.443-.349-.959-.117-1.021-.189-1.216-.498-1.352-.195-.086-.697-.122-.922-.065zm.925.2c.12.071.184.138.212.224.06.189.151.724.193 1.136.047.46.125.642.399.93.369.387.947.748 1.655 1.033.377.152.489.239.589.456.192.415-.002.986-.432 1.278-.504.341-1.316.334-1.846-.017-.419-.277-.738-.835-.798-1.393-.061-.568-.185-.738-.749-1.025-.451-.23-.805-.56-.987-.92-.099-.196-.113-.264-.113-.544 0-.387.102-.642.361-.901.277-.277.575-.383 1.037-.367.252.008.335.028.478.111zm8.077 2.53c-.064.028-.203.16-.31.295-.277.349-.647.683-.881.796-.314.152-.601.205-1.315.241-.649.033-.665.036-.898.16-.619.33-.893 1.117-.548 1.574.228.302.643.424 1.447.424 1.16.001 1.905-.243 2.472-.809.526-.525.761-1.203.657-1.896-.093-.618-.328-.914-.624-.786zm1.619.092c-.433.15-.491.253-.55.977-.051.62-.029.773.136.937.155.155.34.191.683.133a1.75 1.75 0 0 0 1.277-.906c.158-.301.26-.66.229-.804-.033-.152-.245-.318-.468-.365-.313-.067-1.079-.051-1.307.028zm-1.359.045c.119.094.235.442.27.813.065.675-.283 1.421-.861 1.851-.461.342-.965.509-1.76.582-1.058.097-1.757-.127-1.885-.604-.08-.299.059-.699.342-.979.293-.29.621-.38 1.392-.382.85-.003 1.356-.25 1.925-.943.244-.297.366-.413.436-.414.023 0 .086.034.141.077zm2.68.043c.161.041.362.215.362.314 0 .112-.186.62-.287.783-.223.36-.513.576-.95.708-.367.11-.648.092-.792-.053-.1-.1-.101-.109-.098-.581.007-.974.129-1.153.826-1.211.348-.029.727-.013.939.041zm-7.751 2.183a1.462 1.462 0 0 1-.32.34c-.223.165-.274.277-.197.436.123.255.463.346.767.207.44-.202.511-.742.142-1.084-.155-.144-.257-.118-.392.102zm.359.037c.117.139.192.373.161.498-.06.237-.305.405-.592.405a.313.313 0 0 1-.265-.11c-.16-.16-.142-.23.115-.429.128-.099.259-.241.302-.327.093-.182.151-.19.279-.037zm4.67 2.195c.009.345.021.424.067.424.078 0 .088-.09.058-.497-.02-.269-.039-.352-.081-.352-.045 0-.052.075-.044.424zM4.148 22.268c0 1.084.002 1.112.075 1.112s.075-.031.085-.93l.01-.93.448.6c.246.33.46.613.473.629.025.029.567-.713.571-.782.007-.115-.099-.026-.287.241-.117.167-.227.313-.245.324s-.272-.294-.565-.678c-.293-.384-.54-.698-.549-.698s-.017.501-.017 1.112zm4.837-1.084c-.208.01-.273.026-.273.068 0 .061.293.075.617.031.207-.028.252-.132.052-.119l-.396.02zm3.724 1.084c0 .958.008 1.112.056 1.112s.057-.14.066-.952l.01-.952.787.97c.433.534.793.97.801.97s.015-.238.015-.528c0-.439-.009-.528-.055-.528-.044 0-.057.076-.066.375l-.011.375-.79-.978c-.435-.538-.795-.978-.801-.978s-.011.501-.011 1.112zm2.866-.007c0 .965.008 1.12.056 1.12s.057-.14.066-.946l.01-.946.77.965c.424.531.776.965.782.965s.012-.238.012-.528c0-.438-.009-.528-.055-.528-.044 0-.057.075-.066.365l-.011.365-.75-.94c-.413-.517-.765-.957-.783-.976s-.032.456-.032 1.084zm-6.164.007c-.427.592-.776 1.084-.776 1.094s.375.019.833.019c.649 0 .829-.01.817-.047-.012-.035-.197-.05-.72-.057-.387-.006-.704-.018-.704-.028s.307-.444.681-.965c.375-.521.69-.969.7-.996s.002-.059-.019-.072-.387.461-.813 1.052zm-3.151-.273c0 .42-.011.904-.024 1.075-.023.301-.021.311.057.311.08 0 .081-.006.081-.843 0-.464.011-.947.024-1.075.023-.219.02-.232-.057-.232-.08 0-.081.008-.081.764zm1.244-.725c0 .021.189.505.42 1.075.262.646.439 1.036.471 1.036.028 0 .052-.013.052-.028.001-.089-.857-2.121-.896-2.121-.026 0-.047.017-.047.038zm3.998 0c0 .047.793 2.082.825 2.119.013.015.042.015.064 0 .052-.035-.776-2.157-.842-2.157-.026 0-.047.017-.047.038zm6.134.024c-.069.069-.009.11.168.118a.936.936 0 0 1 .63.276c.211.215.25.32.251.678.001.295-.009.34-.113.508a.88.88 0 0 1-.7.425c-.157.011-.223.032-.223.068 0 .078.363.065.549-.019.382-.174.584-.469.612-.896.039-.6-.295-1.036-.876-1.141-.264-.048-.265-.048-.298-.015zM6.921 22.598l-.272.73c-.009.023.008.052.038.063.04.015.121-.159.323-.702.148-.398.269-.736.269-.751s-.023-.028-.051-.028c-.031 0-.15.269-.307.688zm4.186-.653c-.012.019-.131.349-.264.732-.194.56-.231.701-.188.718.03.011.054.016.054.01s.11-.321.245-.7c.135-.379.245-.713.245-.742 0-.06-.06-.071-.093-.017zm3.835 1.219c.009.984.018 1.141.067 1.141s.058-.11.068-.717c.016-.954-.02-1.565-.091-1.565-.045 0-.052.177-.043 1.141z"/></symbol><symbol id="icon-text" viewBox="0 0 23 32"><path d="M14.745 14.594c0 .398.003.415.08.415.072 0 .078-.015.057-.141a3.297 3.297 0 0 1-.024-.415c0-.218-.012-.273-.057-.273-.047 0-.057.071-.057.415zM3.96 15.782c0 1.084.002 1.112.075 1.112s.075-.031.085-.931l.01-.931.471.631c.46.616.473.629.528.547.031-.047.161-.23.288-.407.145-.203.216-.332.19-.348-.059-.037-.074-.022-.307.31-.117.166-.226.294-.244.283s-.264-.325-.547-.699c-.283-.374-.523-.679-.532-.679s-.017.501-.017 1.112zm4.798-1.085c-.185.011-.236.026-.236.074 0 .053.046.057.384.035.211-.014.391-.032.4-.041.046-.046-.051-.095-.173-.089l-.375.021zm3.762 1.085c0 .958.008 1.112.056 1.112s.057-.14.066-.95l.01-.95.786.969c.432.533.793.969.801.969s.015-.238.015-.528c0-.439-.009-.528-.055-.528-.044 0-.057.076-.066.376l-.011.376-.791-.979c-.435-.539-.796-.979-.801-.979s-.011.501-.011 1.112zm2.866-.001c0 .959.008 1.114.056 1.114s.057-.14.066-.946l.01-.946.77.965c.424.531.776.965.782.965s.012-.238.012-.528c0-.438-.009-.528-.055-.528-.044 0-.057.075-.066.365l-.011.365-.676-.846a80.93 80.93 0 0 0-.783-.97l-.107-.124v1.114zm-5.533-.879c-.515.703-1.406 1.952-1.406 1.971 0 .012.365.022.811.022.696 0 .811-.008.811-.057s-.103-.057-.698-.057c-.384 0-.698-.01-.698-.022s.301-.439.669-.949c.786-1.089.744-1.024.696-1.072-.025-.025-.087.029-.185.164zm-3.791.908c-.012.586-.015 1.072-.007 1.079s.04.004.072-.008c.05-.019.058-.148.059-.938 0-.504.011-.979.024-1.057.02-.124.014-.141-.051-.141-.072 0-.075.036-.096 1.065zm1.254-1.022c0 .111.844 2.106.891 2.106.028 0 .051-.012.051-.027 0-.091-.857-2.122-.896-2.122-.026 0-.047.019-.047.043zm3.997-.002c0 .104.815 2.108.858 2.108.026 0 .048-.013.048-.028.004-.089-.82-2.121-.859-2.121-.026 0-.047.019-.047.041zm6.137.019c-.069.069-.012.11.165.119.336.016.602.181.793.489.096.156.134.531.076.747-.099.367-.473.659-.842.659-.143 0-.181.013-.181.062 0 .1.442.049.656-.076.421-.247.618-.778.471-1.269a1.115 1.115 0 0 0-.524-.609c-.207-.103-.561-.173-.613-.121zM6.717 16.146c-.208.55-.261.73-.225.752.027.016.051.026.055.022.017-.018.542-1.436.542-1.465 0-.018-.022-.032-.05-.032-.03 0-.158.286-.323.722zm3.947.003c-.181.519-.24.732-.209.752.024.015.049.023.054.018.023-.023.501-1.404.501-1.447a.046.046 0 0 0-.046-.046c-.027 0-.154.308-.3.725zm4.09.525c.008.869.021 1.141.057 1.153.037.012.047-.232.047-1.138 0-1.005-.007-1.153-.057-1.153s-.056.142-.047 1.138z"/></symbol><symbol id="icon-logo-2" viewBox="0 0 23 32"><path d="M10.44 6.898c-.426.115-.941.389-1.133.602a1.079 1.079 0 0 0-.16 1.244c.29.533.997.595 1.941.171.285-.128.362-.146.691-.16.573-.025 1.063.129 1.792.563.267.159.505.163.798.014.297-.151.405-.166.779-.109.459.07.931.068 1.07-.004.313-.162.335-.709.041-1.003-.241-.241-.571-.281-1.049-.129-.352.112-.375.102-.621-.25-.284-.407-.659-.628-1.209-.714-.323-.05-.527-.022-.886.121-.411.163-.489.152-.778-.109-.141-.128-.304-.238-.392-.264-.212-.064-.589-.052-.883.027zm.889.099c.076.032.239.151.363.264.199.183.243.206.385.206.09 0 .294-.052.462-.118.377-.146.639-.172.972-.094.435.102.757.304.952.596.206.31.321.407.477.407.078 0 .228-.034.333-.075.242-.095.536-.096.744-.001.347.157.458.636.207.888l-.103.103-.434-.022a28.452 28.452 0 0 1-.741-.047c-.294-.023-.319-.019-.583.103-.398.183-.502.173-.934-.09-.601-.366-1.064-.497-1.663-.473-.318.013-.398.032-.717.169-.434.187-.581.228-.924.26-.336.031-.546-.025-.735-.195-.325-.294-.35-.86-.056-1.247.178-.234.668-.502 1.157-.633.267-.072.665-.072.837-.001zm-3.108.534c-.464.081-.87.283-1.207.601-.207.195-.3.32-.424.572-.138.278-.161.361-.173.612-.01.229.001.312.053.391.138.211.427.277.856.194.337-.065.556-.154.809-.331.099-.069.35-.21.557-.314.45-.225.472-.273.286-.622-.136-.256-.147-.437-.04-.673.112-.247.1-.338-.056-.403-.123-.051-.448-.065-.661-.028zm.594.11c.106.028.109.121.009.316-.11.215-.098.438.038.692.173.324.166.339-.236.527-.192.09-.456.233-.587.319-.416.27-.972.403-1.27.304a.328.328 0 0 1-.223-.197c-.063-.13-.067-.173-.029-.377.095-.513.522-1.087.987-1.326.426-.219 1.018-.335 1.31-.257zm3.023 1.694c-.813.127-1.257.297-1.584.609-.3.285-.425.549-.423.893.003.584.309.902.754.782.147-.04.209-.078.543-.334.343-.263 1.015-.376 1.516-.255.615.149 1.374.642 1.64 1.065.062.099.192.421.29.715.19.577.267.708.46.789.299.125.504.021.583-.297.058-.235.056-1.26-.003-1.575-.095-.5-.42-.895-1.264-1.533-.905-.685-1.18-.823-1.752-.883-.382-.04-.351-.041-.758.022zm4.608.077c-.414.111-.897.444-.986.68-.05.133-.045.329.011.4a1.5 1.5 0 0 0 .255.192c.468.296.56.522.475 1.16s-.007.865.431 1.245c.398.347.392.378-.161.736-.472.306-.775.614-.951.966-.145.29-.169.492-.078.667.109.211.349.298 1.163.421.71.108 1.135.092 1.43-.053.397-.194.669-.562.7-.948.022-.273-.085-.416-.439-.589-.45-.22-.45-.268-.002-.739.376-.395.524-.651.524-.91 0-.2-.055-.333-.278-.661a2.262 2.262 0 0 1-.254-.522c-.083-.274-.083-.29-.01-1.098.029-.315-.014-.427-.237-.633-.361-.333-1.032-.466-1.592-.316zm-3.695.032c.469.084.673.197 1.561.866.624.471.934.785 1.079 1.094.103.221.121.311.157.796.045.607.007 1.079-.101 1.243-.114.174-.453.093-.572-.137a5.578 5.578 0 0 1-.193-.537c-.168-.529-.274-.739-.495-.975s-.758-.592-1.123-.744c-.739-.308-1.581-.219-2.102.221-.321.271-.671.34-.826.163-.317-.362-.264-.915.129-1.345.231-.252.518-.4 1.026-.529.675-.17 1.008-.197 1.462-.116zm4.828.13c.267.104.511.318.575.507.041.12.04.2-.005.471-.101.611-.018 1.019.308 1.514.228.346.247.391.247.571 0 .235-.127.46-.429.759-.338.334-.438.47-.438.593 0 .156.095.25.394.393.305.145.398.258.397.483-.001.342-.382.792-.776.916-.27.085-.879.063-1.519-.055-.673-.124-.835-.223-.835-.51 0-.349.455-.935.981-1.264.149-.093.322-.211.384-.261.244-.198.21-.406-.106-.644-.436-.329-.541-.613-.451-1.215.099-.656-.01-.905-.552-1.27-.219-.147-.257-.21-.214-.358.072-.25.493-.562.927-.686.271-.078.844-.05 1.112.054zm-9.136.044a1.546 1.546 0 0 1-.167.119l-.131.085c-.084.057-.38.151-.819.259-.803.198-1.127.347-1.446.665a1.948 1.948 0 0 0-.321.435c-.1.205-.111.263-.111.605 0 .363.006.391.144.67.309.625.92 1.086 1.275.962.093-.032.149-.117.354-.534.288-.588.606-1.017.846-1.144.135-.071.225-.088.478-.088.396 0 .43-.029.43-.365 0-.221.014-.265.127-.422.229-.315.302-.494.304-.747.002-.272-.069-.396-.303-.53a.59.59 0 0 0-.66.03zm.649.084c.315.212.297.55-.058 1.067-.163.238-.172.264-.172.511v.26l-.311.001c-.34.001-.52.06-.736.242-.171.145-.58.772-.738 1.133-.166.38-.256.456-.469.398a1.208 1.208 0 0 1-.34-.188c-.545-.431-.821-1.099-.687-1.659.101-.42.515-.857.999-1.053.125-.05.496-.158.825-.238.655-.16.746-.198 1.019-.413.155-.123.212-.146.362-.146a.52.52 0 0 1 .306.086zm2.764 1.987c-.164.082-.418.297-.958.812-.99.944-1.034.993-1.128 1.273-.401 1.183.355 2.178 1.661 2.182a2.21 2.21 0 0 0 .547-.062c.979-.279 1.519-1.165 1.18-1.938-.112-.256-.246-.409-.448-.511-.542-.275-1.036-.142-1.172.315-.076.253-.022.349.239.432.225.071.313.164.273.287-.031.099-.285.191-.526.191-.446 0-.603-.394-.321-.806.193-.281.861-.703 1.11-.702.356.001.832.222 1.142.529.407.403.55.83.4 1.192-.087.209-.387.603-.653.857-.364.347-1.295.731-1.987.819-.4.051-.633.004-.921-.187-.479-.317-.952-1.11-1.006-1.685-.02-.213-.01-.261.102-.494.103-.215.127-.314.142-.597.022-.417.047-.471.216-.471.278 0 .396-.131.396-.437 0-.466-.482-.824-1.175-.873-.416-.029-.649.086-1.156.573-.463.444-.611.697-.611 1.046 0 .266.067.41.24.517.192.119.229.241.174.581-.1.619-.015.899.46 1.524.296.389.492.576.858.813.544.354 1.068.514 1.776.543.411.017.561.004 1.177-.099.388-.065.834-.151.99-.191.733-.188 1.417-.696 1.602-1.193.111-.298.163-.903.143-1.674-.016-.587-.028-.69-.115-.933-.216-.607-.574-1.085-1.053-1.404a2.16 2.16 0 0 0-1.101-.34c-.229 0-.312.019-.498.112zm1.022.081c.87.27 1.489 1.075 1.639 2.134.05.355-.013 1.579-.096 1.859-.124.419-.465.767-1.015 1.036-.586.286-1.642.49-2.545.491-.636.001-.944-.057-1.414-.265-.517-.228-1.085-.721-1.449-1.257-.308-.453-.362-.675-.283-1.146.073-.431.035-.592-.173-.736-.246-.171-.293-.388-.168-.769.055-.166.131-.264.449-.581.471-.468.656-.583.98-.609.418-.034.974.19 1.155.465.093.141.099.452.011.55-.041.045-.116.069-.217.07a.527.527 0 0 0-.199.029c-.08.051-.125.234-.125.51a.95.95 0 0 1-.118.516c-.264.548-.103 1.233.456 1.937.219.276.424.455.655.577.309.162.906.122 1.59-.104.883-.293 1.246-.533 1.666-1.103.479-.65.477-1.005-.008-1.621-.448-.569-1.289-.844-1.771-.58-.296.162-.676.461-.784.618-.244.354-.202.769.093.92.354.181.974-.002.974-.287 0-.142-.178-.305-.368-.337-.175-.03-.219-.1-.179-.284.056-.253.383-.445.664-.39.375.073.662.309.791.65.239.633-.228 1.419-.997 1.678-.348.118-.7.144-1.023.078-.568-.117-.961-.398-1.179-.843-.094-.191-.104-.25-.101-.589.005-.602.059-.704.707-1.332.85-.825 1.166-1.119 1.301-1.212.288-.198.606-.219 1.081-.072zm-8.142.533c-.03.047-.073.185-.095.308-.036.201-.061.243-.248.416-.181.168-.208.212-.208.335 0 .174.068.309.232.464.168.158.263.203.43.203.191 0 .353-.178.483-.53.192-.518.168-.917-.071-1.155-.105-.105-.152-.125-.297-.125-.138 0-.184.017-.227.085zm.519.189c.115.154.125.459.026.789-.198.66-.426.792-.794.459-.15-.135-.228-.311-.195-.44.01-.038.093-.131.185-.207.193-.16.275-.295.275-.455s.06-.297.139-.315c.105-.024.28.058.364.169zm.467 1.273a1.419 1.419 0 0 0-.839.582c-.284.444-.317.912-.096 1.363.172.351.567.744.926.92.61.299.717.427.794.954.028.191.067.402.087.468.077.255.295.605.513.825.379.382.832.537 1.441.494.361-.026.687-.152.922-.358.201-.177.378-.535.4-.813.042-.531-.169-.809-.804-1.055-.599-.233-1.262-.655-1.576-1.003-.215-.239-.289-.443-.349-.959-.117-1.021-.189-1.216-.498-1.352-.195-.086-.697-.122-.922-.065zm.925.2c.12.071.184.138.212.224.06.189.151.724.193 1.136.047.46.125.642.399.93.369.387.947.748 1.655 1.033.377.152.489.239.589.456.192.415-.002.986-.432 1.278-.504.341-1.316.334-1.846-.017-.419-.277-.738-.835-.798-1.393-.061-.568-.185-.738-.749-1.025-.451-.23-.805-.56-.987-.92-.099-.196-.113-.264-.113-.544 0-.387.102-.642.361-.901.277-.277.575-.383 1.037-.367.252.008.335.028.478.111zm8.077 2.53c-.064.028-.203.16-.31.295-.277.349-.647.683-.881.796-.314.152-.601.205-1.315.241-.649.033-.665.036-.898.16-.619.33-.893 1.117-.548 1.574.228.302.643.424 1.447.424 1.16.001 1.905-.243 2.472-.809.526-.525.761-1.203.657-1.896-.093-.618-.328-.914-.624-.786zm1.619.092c-.433.15-.491.253-.55.977-.051.62-.029.773.136.937.155.155.34.191.683.133a1.75 1.75 0 0 0 1.277-.906c.158-.301.26-.66.229-.804-.033-.152-.245-.318-.468-.365-.313-.067-1.079-.051-1.307.028zm-1.359.045c.119.094.235.442.27.813.065.675-.283 1.421-.861 1.851-.461.342-.965.509-1.76.582-1.058.097-1.757-.127-1.885-.604-.08-.299.059-.699.342-.979.293-.29.621-.38 1.392-.382.85-.003 1.356-.25 1.925-.943.244-.297.366-.413.436-.414.023 0 .086.034.141.077zm2.68.043c.161.041.362.215.362.314 0 .112-.186.62-.287.783-.223.36-.513.576-.95.708-.367.11-.648.092-.792-.053-.1-.1-.101-.109-.098-.581.007-.974.129-1.153.826-1.211.348-.029.727-.013.939.041zm-7.751 2.183a1.462 1.462 0 0 1-.32.34c-.223.165-.274.277-.197.436.123.255.463.346.767.207.44-.202.511-.742.142-1.084-.155-.144-.257-.118-.392.102zm.359.037c.117.139.192.373.161.498-.06.237-.305.405-.592.405a.313.313 0 0 1-.265-.11c-.16-.16-.142-.23.115-.429.128-.099.259-.241.302-.327.093-.182.151-.19.279-.037zm4.67 2.195c.009.345.021.424.067.424.078 0 .088-.09.058-.497-.02-.269-.039-.352-.081-.352-.045 0-.052.075-.044.424zM4.148 22.268c0 1.084.002 1.112.075 1.112s.075-.031.085-.93l.01-.93.448.6c.246.33.46.613.473.629.025.029.567-.713.571-.782.007-.115-.099-.026-.287.241-.117.167-.227.313-.245.324s-.272-.294-.565-.678c-.293-.384-.54-.698-.549-.698s-.017.501-.017 1.112zm4.837-1.084c-.208.01-.273.026-.273.068 0 .061.293.075.617.031.207-.028.252-.132.052-.119l-.396.02zm3.724 1.084c0 .958.008 1.112.056 1.112s.057-.14.066-.952l.01-.952.787.97c.433.534.793.97.801.97s.015-.238.015-.528c0-.439-.009-.528-.055-.528-.044 0-.057.076-.066.375l-.011.375-.79-.978c-.435-.538-.795-.978-.801-.978s-.011.501-.011 1.112zm2.866-.007c0 .965.008 1.12.056 1.12s.057-.14.066-.946l.01-.946.77.965c.424.531.776.965.782.965s.012-.238.012-.528c0-.438-.009-.528-.055-.528-.044 0-.057.075-.066.365l-.011.365-.75-.94c-.413-.517-.765-.957-.783-.976s-.032.456-.032 1.084zm-6.164.007c-.427.592-.776 1.084-.776 1.094s.375.019.833.019c.649 0 .829-.01.817-.047-.012-.035-.197-.05-.72-.057-.387-.006-.704-.018-.704-.028s.307-.444.681-.965c.375-.521.69-.969.7-.996s.002-.059-.019-.072-.387.461-.813 1.052zm-3.151-.273c0 .42-.011.904-.024 1.075-.023.301-.021.311.057.311.08 0 .081-.006.081-.843 0-.464.011-.947.024-1.075.023-.219.02-.232-.057-.232-.08 0-.081.008-.081.764zm1.244-.725c0 .021.189.505.42 1.075.262.646.439 1.036.471 1.036.028 0 .052-.013.052-.028.001-.089-.857-2.121-.896-2.121-.026 0-.047.017-.047.038zm3.998 0c0 .047.793 2.082.825 2.119.013.015.042.015.064 0 .052-.035-.776-2.157-.842-2.157-.026 0-.047.017-.047.038zm6.134.024c-.069.069-.009.11.168.118a.936.936 0 0 1 .63.276c.211.215.25.32.251.678.001.295-.009.34-.113.508a.88.88 0 0 1-.7.425c-.157.011-.223.032-.223.068 0 .078.363.065.549-.019.382-.174.584-.469.612-.896.039-.6-.295-1.036-.876-1.141-.264-.048-.265-.048-.298-.015zM6.921 22.598l-.272.73c-.009.023.008.052.038.063.04.015.121-.159.323-.702.148-.398.269-.736.269-.751s-.023-.028-.051-.028c-.031 0-.15.269-.307.688zm4.186-.653c-.012.019-.131.349-.264.732-.194.56-.231.701-.188.718.03.011.054.016.054.01s.11-.321.245-.7c.135-.379.245-.713.245-.742 0-.06-.06-.071-.093-.017zm3.835 1.219c.009.984.018 1.141.067 1.141s.058-.11.068-.717c.016-.954-.02-1.565-.091-1.565-.045 0-.052.177-.043 1.141z"/></symbol></defs></svg>